<svg width="40" height="40" viewBox="0 0 800 514" version="1.1" xmlns="http://www.w3.org/2000/svg" style="fill-rule:evenodd;clip-rule:evenodd;stroke-linecap:round;stroke-linejoin:round;stroke-miterlimit:1.5;">
    <g transform="matrix(1.20228,0,0,1,-98.2271,35.2554)">
        <g>
            <g>
                <clipPath id="_clip1">
                    <path d="M198.663,318.883L139.883,108.783L181.505,108.783L215.185,236.371C217.303,244.011 219.156,251.714 220.745,259.482C222.334,267.249 223.446,273.934 224.081,279.537C224.928,273.934 226.04,267.249 227.417,259.482C228.794,251.714 230.436,244.138 232.342,236.753L265.704,108.783L307.644,108.783L249.182,318.883L198.663,318.883ZM367.377,387.643L367.377,347.915L416.625,347.915C425.945,347.915 433.147,344.922 438.231,338.938C443.314,332.953 445.856,324.867 445.856,314.681L445.856,302.075L446.492,269.223C442.891,280.937 437.119,290.042 429.175,296.536C421.232,303.03 411.541,306.277 400.103,306.277C382.31,306.277 368.171,299.082 357.686,284.694C347.201,270.305 341.959,250.759 341.959,226.057L341.959,185.183C341.959,160.735 347.201,141.253 357.686,126.737C368.171,112.221 382.31,104.963 400.103,104.963C411.541,104.963 421.232,108.21 429.175,114.704C437.119,121.198 442.891,130.429 446.492,142.399L446.492,108.783L485.255,108.783L485.255,315.827C485.255,337.983 479.165,355.491 466.985,368.352C454.805,381.212 438.231,387.643 417.26,387.643L367.377,387.643ZM413.448,265.403C423.615,265.403 431.505,261.774 437.119,254.516C442.732,247.258 445.538,237.135 445.538,224.147L445.538,187.475C445.538,174.487 442.732,164.364 437.119,157.106C431.505,149.848 423.615,146.219 413.448,146.219C403.28,146.219 395.443,149.72 389.936,156.724C384.428,163.727 381.675,173.468 381.675,185.947L381.675,225.675C381.675,238.153 384.428,247.894 389.936,254.898C395.443,261.901 403.28,265.403 413.448,265.403ZM605.038,322.321C582.586,322.321 564.793,314.744 551.66,299.592C538.527,284.439 531.961,264.002 531.961,238.281L531.961,189.385C531.961,163.409 538.527,142.908 551.66,127.883C564.793,112.857 582.586,105.345 605.038,105.345C627.491,105.345 645.284,112.857 658.417,127.883C671.55,142.908 678.116,163.409 678.116,189.385L678.116,238.281C678.116,264.002 671.55,284.439 658.417,299.592C645.284,314.744 627.491,322.321 605.038,322.321ZM605.038,280.683C615.629,280.683 623.837,277.181 629.662,270.178C635.487,263.174 638.4,253.051 638.4,239.809L638.4,187.857C638.4,174.614 635.487,164.491 629.662,157.488C623.837,150.484 615.629,146.983 605.038,146.983C594.447,146.983 586.239,150.484 580.414,157.488C574.589,164.491 571.677,174.614 571.677,187.857L571.677,239.809C571.677,253.051 574.589,263.174 580.414,270.178C586.239,277.181 594.447,280.683 605.038,280.683Z" clip-rule="nonzero"/>
                </clipPath>
                <g clip-path="url(#_clip1)">
                    <g transform="matrix(0.831752,0,0,1,21.6106,0)">
                        <g transform="matrix(382,0,0,382,128.445,318.883)">
                            <path d="M0.221,-0L0.036,-0.55L0.167,-0.55L0.273,-0.216C0.28,-0.196 0.286,-0.176 0.291,-0.156C0.296,-0.135 0.299,-0.118 0.301,-0.103C0.304,-0.118 0.307,-0.135 0.312,-0.156C0.316,-0.176 0.321,-0.196 0.327,-0.215L0.432,-0.55L0.564,-0.55L0.38,-0L0.221,-0Z" style="fill:url(#_Linear2);fill-rule:nonzero;"/>
                        </g>
                        <g transform="matrix(382,0,0,382,357.645,318.883)">
                            <path d="M0.152,0.18L0.152,0.076L0.307,0.076C0.336,0.076 0.359,0.068 0.375,0.053C0.391,0.037 0.399,0.016 0.399,-0.011L0.399,-0.044L0.401,-0.13C0.39,-0.099 0.372,-0.076 0.347,-0.059C0.322,-0.042 0.291,-0.033 0.255,-0.033C0.199,-0.033 0.155,-0.052 0.122,-0.09C0.089,-0.127 0.072,-0.178 0.072,-0.243L0.072,-0.35C0.072,-0.414 0.089,-0.465 0.122,-0.503C0.155,-0.541 0.199,-0.56 0.255,-0.56C0.291,-0.56 0.322,-0.552 0.347,-0.535C0.372,-0.518 0.39,-0.493 0.401,-0.462L0.401,-0.55L0.523,-0.55L0.523,-0.008C0.523,0.05 0.504,0.096 0.466,0.13C0.427,0.163 0.375,0.18 0.309,0.18L0.152,0.18ZM0.297,-0.14C0.329,-0.14 0.354,-0.15 0.372,-0.169C0.389,-0.188 0.398,-0.214 0.398,-0.248L0.398,-0.344C0.398,-0.378 0.389,-0.405 0.372,-0.424C0.354,-0.443 0.329,-0.452 0.297,-0.452C0.265,-0.452 0.24,-0.443 0.223,-0.425C0.206,-0.406 0.197,-0.381 0.197,-0.348L0.197,-0.244C0.197,-0.211 0.206,-0.186 0.223,-0.168C0.24,-0.149 0.265,-0.14 0.297,-0.14Z" style="fill:url(#_Linear3);fill-rule:nonzero;"/>
                        </g>
                        <g transform="matrix(382,0,0,382,586.845,318.883)">
                            <path d="M0.3,0.009C0.229,0.009 0.173,-0.011 0.132,-0.051C0.091,-0.09 0.07,-0.144 0.07,-0.211L0.07,-0.339C0.07,-0.407 0.091,-0.461 0.132,-0.5C0.173,-0.539 0.229,-0.559 0.3,-0.559C0.371,-0.559 0.427,-0.539 0.468,-0.5C0.509,-0.461 0.53,-0.407 0.53,-0.339L0.53,-0.211C0.53,-0.144 0.509,-0.09 0.468,-0.051C0.427,-0.011 0.371,0.009 0.3,0.009ZM0.3,-0.1C0.333,-0.1 0.359,-0.109 0.378,-0.128C0.396,-0.146 0.405,-0.172 0.405,-0.207L0.405,-0.343C0.405,-0.378 0.396,-0.404 0.378,-0.423C0.359,-0.441 0.333,-0.45 0.3,-0.45C0.267,-0.45 0.241,-0.441 0.223,-0.423C0.204,-0.404 0.195,-0.378 0.195,-0.343L0.195,-0.207C0.195,-0.172 0.204,-0.146 0.223,-0.128C0.241,-0.109 0.267,-0.1 0.3,-0.1Z" style="fill:url(#_Linear4);fill-rule:nonzero;"/>
                        </g>
                    </g>
                    <g transform="matrix(0.831752,0,0,1,81.7006,-35.2554)">
                        <path d="M140.621,354.138L69.951,144.038L119.993,144.038L160.485,271.626C163.032,279.266 165.26,286.97 167.17,294.737C169.08,302.504 170.417,309.189 171.181,314.792C172.2,309.189 173.537,302.504 175.192,294.737C176.848,286.97 178.821,279.393 181.113,272.008L221.223,144.038L271.647,144.038L201.359,354.138L140.621,354.138ZM343.463,422.898L343.463,383.17L402.673,383.17C413.879,383.17 422.537,380.178 428.649,374.193C434.761,368.208 437.817,360.123 437.817,349.936L437.817,337.33L438.581,304.478C434.252,316.193 427.312,325.297 417.762,331.791C408.212,338.285 396.561,341.532 382.809,341.532C361.417,341.532 344.418,334.338 331.812,319.949C319.206,305.56 312.903,286.015 312.903,261.312L312.903,220.438C312.903,195.99 319.206,176.508 331.812,161.992C344.418,147.476 361.417,140.218 382.809,140.218C396.561,140.218 408.212,143.465 417.762,149.959C427.312,156.453 434.252,165.685 438.581,177.654L438.581,144.038L485.185,144.038L485.185,351.082C485.185,373.238 477.864,390.746 463.22,403.607C448.577,416.468 428.649,422.898 403.437,422.898L343.463,422.898ZM398.853,300.658C411.077,300.658 420.564,297.029 427.312,289.771C434.061,282.513 437.435,272.39 437.435,259.402L437.435,222.73C437.435,209.742 434.061,199.619 427.312,192.361C420.564,185.103 411.077,181.474 398.853,181.474C386.629,181.474 377.207,184.976 370.585,191.979C363.964,198.982 360.653,208.723 360.653,221.202L360.653,260.93C360.653,273.409 363.964,283.15 370.585,290.153C377.207,297.156 386.629,300.658 398.853,300.658ZM629.199,357.576C602.205,357.576 580.813,350 565.023,334.847C549.234,319.694 541.339,299.257 541.339,273.536L541.339,224.64C541.339,198.664 549.234,178.163 565.023,163.138C580.813,148.113 602.205,140.6 629.199,140.6C656.194,140.6 677.586,148.113 693.375,163.138C709.165,178.163 717.059,198.664 717.059,224.64L717.059,273.536C717.059,299.257 709.165,319.694 693.375,334.847C677.586,350 656.194,357.576 629.199,357.576ZM629.199,315.938C641.933,315.938 651.801,312.436 658.804,305.433C665.808,298.43 669.309,288.307 669.309,275.064L669.309,223.112C669.309,209.869 665.808,199.746 658.804,192.743C651.801,185.74 641.933,182.238 629.199,182.238C616.466,182.238 606.598,185.74 599.594,192.743C592.591,199.746 589.089,209.869 589.089,223.112L589.089,275.064C589.089,288.307 592.591,298.43 599.594,305.433C606.598,312.436 616.466,315.938 629.199,315.938Z" style="fill:url(#_Linear5);"/>
                    </g>
                </g>
            </g>
        </g>
    </g>
    <g transform="matrix(0.5,-0.866025,0.866025,0.5,167.548,649.753)">
        <g transform="matrix(0.38356,-0.222954,0.500745,0.865594,170.063,111.23)">
            <path d="M388.254,136.264L931.326,137.149" style="fill:none;stroke:#04f;stroke-width:2.59px;"/>
        </g>
        <g transform="matrix(0.232813,0.403244,-0.262731,0.151688,372.975,-114.676)">
            <path d="M509.86,266.2L509.86,290.922C509.86,297.744 506.252,303.283 501.807,303.283L485.699,303.283C481.254,303.283 477.646,297.744 477.646,290.922L477.646,266.2C477.646,259.378 481.254,253.839 485.699,253.839L501.807,253.839C506.252,253.839 509.86,259.378 509.86,266.2Z" style="fill:#fff;stroke:#04f;stroke-width:3.82px;"/>
        </g>
        <g transform="matrix(0.232813,0.403244,-0.262731,0.151688,555.144,-219.344)">
            <path d="M509.86,266.2L509.86,290.922C509.86,297.744 506.252,303.283 501.807,303.283L485.699,303.283C481.254,303.283 477.646,297.744 477.646,290.922L477.646,266.2C477.646,259.378 481.254,253.839 485.699,253.839L501.807,253.839C506.252,253.839 509.86,259.378 509.86,266.2Z" style="fill:#fff;stroke:#04f;stroke-width:3.82px;"/>
        </g>
        <g transform="matrix(0.766474,1.32757,-1.32757,0.766474,324.686,-373.616)">
            <circle cx="312.103" cy="133.727" r="2.609" style="fill:#04f;stroke:#04f;stroke-width:0.52px;"/>
        </g>
    </g>
    <g transform="matrix(1,0,0,1,-21.9077,3.68196)">
        <g transform="matrix(0.4705,-0.000565537,-0.000565537,0.999999,192.659,0.148698)">
            <path d="M349.609,136.39L512.207,136.564" style="fill:none;stroke:#04f;stroke-width:2.56px;"/>
        </g>
        <g transform="matrix(0.660895,0,0,0.618886,137.198,52.9758)">
            <ellipse cx="398.952" cy="133.16" rx="11.348" ry="12.119" style="fill:#fff;stroke:#04f;stroke-width:3.12px;"/>
        </g>
        <g transform="matrix(1.53295,0,0,1.53295,-122.813,-68.6117)">
            <circle cx="312.103" cy="133.727" r="2.609" style="fill:#04f;stroke:#04f;stroke-width:0.52px;"/>
        </g>
        <g transform="matrix(1.53295,0,0,1.53295,-44.5713,-68.6117)">
            <circle cx="312.103" cy="133.727" r="2.609" style="fill:#04f;stroke:#04f;stroke-width:0.52px;"/>
        </g>
    </g>
    <g transform="matrix(1,0,0,1,13.2863,286.105)">
        <g transform="matrix(0.374415,-0.000332953,-0.000332953,0.686151,238.35,42.8702)">
            <path d="M247.707,136.382L512.207,136.564" style="fill:none;stroke:#04f;stroke-width:3.62px;"/>
        </g>
        <g transform="matrix(0.465626,0,0,0.303376,165.88,51.8761)">
            <path d="M509.86,266.2L509.86,290.922C509.86,297.744 506.252,303.283 501.807,303.283L485.699,303.283C481.254,303.283 477.646,297.744 477.646,290.922L477.646,266.2C477.646,259.378 481.254,253.839 485.699,253.839L501.807,253.839C506.252,253.839 509.86,259.378 509.86,266.2Z" style="fill:#fff;stroke:#04f;stroke-width:3.82px;"/>
        </g>
        <g transform="matrix(0.465626,0,0,0.303376,100.537,51.8761)">
            <path d="M509.86,266.2L509.86,290.922C509.86,297.744 506.252,303.283 501.807,303.283L485.699,303.283C481.254,303.283 477.646,297.744 477.646,290.922L477.646,266.2C477.646,259.378 481.254,253.839 485.699,253.839L501.807,253.839C506.252,253.839 509.86,259.378 509.86,266.2Z" style="fill:#fff;stroke:#04f;stroke-width:3.82px;"/>
        </g>
        <g transform="matrix(1.53295,0,0,1.53295,-48.5713,-68.6117)">
            <circle cx="312.103" cy="133.727" r="2.609" style="fill:#04f;stroke:#04f;stroke-width:0.52px;"/>
        </g>
    </g>
    <defs>
        <linearGradient id="_Linear2" x1="0" y1="0" x2="1" y2="0" gradientUnits="userSpaceOnUse" gradientTransform="matrix(0.0026178,0,0,0.0026178,-0.336242,-0.834771)"><stop offset="0" style="stop-color:#b125ea;stop-opacity:1"/><stop offset="0.49" style="stop-color:#833fef;stop-opacity:1"/><stop offset="1" style="stop-color:#008aff;stop-opacity:1"/></linearGradient>
        <linearGradient id="_Linear3" x1="0" y1="0" x2="1" y2="0" gradientUnits="userSpaceOnUse" gradientTransform="matrix(0.0026178,0,0,0.0026178,-0.936242,-0.834771)"><stop offset="0" style="stop-color:#b125ea;stop-opacity:1"/><stop offset="0.49" style="stop-color:#833fef;stop-opacity:1"/><stop offset="1" style="stop-color:#008aff;stop-opacity:1"/></linearGradient>
        <linearGradient id="_Linear4" x1="0" y1="0" x2="1" y2="0" gradientUnits="userSpaceOnUse" gradientTransform="matrix(0.0026178,0,0,0.0026178,-1.53624,-0.834771)"><stop offset="0" style="stop-color:#b125ea;stop-opacity:1"/><stop offset="0.49" style="stop-color:#833fef;stop-opacity:1"/><stop offset="1" style="stop-color:#008aff;stop-opacity:1"/></linearGradient>
        <linearGradient id="_Linear5" x1="0" y1="0" x2="1" y2="0" gradientUnits="userSpaceOnUse" gradientTransform="matrix(687.601,0,0,363.444,56.1995,75.278)"><stop offset="0" style="stop-color:#b125ea;stop-opacity:1"/><stop offset="0.51" style="stop-color:#9441ef;stop-opacity:1"/><stop offset="1" style="stop-color:#3a98ff;stop-opacity:1"/></linearGradient>
    </defs>
</svg>
