<svg xmlns="http://www.w3.org/2000/svg" height="100%" style="fill-rule:evenodd;clip-rule:evenodd;stroke-linejoin:round;stroke-miterlimit:2;" version="1.1" viewBox="0 0 1280 800" width="100%" xml:space="preserve"><defs><clipPath id="_clip1"><path d="M858.304,326.134 292.939,258.86l-9.899,124.148 565.365,67.274 9.899-124.148" fill-rule="evenodd" stroke-linejoin="round" stroke-miterlimit="2"/></clipPath></defs><g clip-path="url(#_clip1)"><path d="M443.72,298.458a32.041,32.041,0,00,13.652-6.62a32.08,32.08,0,00,26.81,14.365a32.088,32.088,0,00,23.091-9.743c6.293,2.504 13.528,3.93 21.221,3.93 9.207,0 17.757-2.041 24.823-5.53 3.985,12.991 16.2,22.459 30.633,22.459a32.147,32.147,0,00,13.963-3.168c5.586,7.518 16.014,12.579 27.946,12.579 6.212,0 12.017-1.372 16.943-3.749a32.083,32.083,0,00,25.241,12.198c8.016,0 15.347-2.92 20.964-7.742 5.922,5.374 14.697,8.779 24.485,8.779 8.325,0 15.918-2.464 21.645-6.506a32.086,32.086,0,00,26.313,13.635c6.401,0 12.365-1.862 17.369-5.069 4.311,3.186 9.364,5.262 14.813,5.848 4.888,5.533 12.538,9.468 21.391,10.589a32.09,32.09,0,00,24.742,11.581c.569,0 1.133-.015 1.694-.044 -3.039,3.84-4.794,8.362-4.794,13.202 0,8.615 5.56,16.226 14.032,20.765 -22.734,89.401-148.402,146.218-293.942,128.9 -139.212-16.565-249.87-95.399-266.392-183.682 7.886-4.592 12.996-11.927 12.996-20.186 0-.701-.037-1.396-.109-2.083a41.178,41.178,0,00,6.333,.486c12.091,0 22.637-5.197 28.166-12.881a34.25,34.25,0,00,8.622,1.098c3.64,0 7.153-.57 10.461-1.632a32.087,32.087,0,00,23.702,10.389a32.089,32.089,0,00,23.972-10.687c3.428,.968 7.124,1.496 10.978,1.496 12.142,0 22.726-5.241 28.236-12.979Zm391.561,4.53 .171,.302c-.195,.026-.39,.054-.585,.083 .089-.217 .175-.437 .258-.658l.156,.274ZM323.59,246.452a32.012,32.012,0,00-6.344-2.535c48.481-59.742 152.176-93.317 268.585-79.466 89.86,10.693 167.823,47.33 216.25,95.707 -13.186,1.235-24.053,10.395-27.67,22.605a32.153,32.153,0,00-12.961-2.707a32.164,32.164,0,00-13.11,2.772v-.005c0-17.466-14.341-31.645-32.004-31.645 -15.531,0-28.494,10.963-31.397,25.482 -4.905-3.022-10.695-4.769-16.896-4.769a32.712,32.712,0,00-3.372,.173l.002-.321c0-17.466-19.699-31.645-43.963-31.645 -15.151,0-28.523,5.529-36.429,13.934l-.331-.002a32.152,32.152,0,00-14.402,3.382c-6.338-11.873-22.338-20.31-41.054-20.31 -11.859,0-22.627,3.388-30.539,8.89a32.154,32.154,0,00-13.773-3.076c-7.795,0-14.942,2.761-20.496,7.347a32.079,32.079,0,00-26.81-14.365c-6.402,0-12.367,1.863-17.371,5.069 -6.336-11.877-22.339-20.316-41.058-20.316 -17.503,0-32.63,7.378-39.702,18.045 -5.677,1.295-10.849,4.006-15.155,7.759Z" fill="#3fb249"/></g><path d="M253.152,327.315a9.96,9.96,0,01,13.993-11.637c95.347,46.304 216.254,73.994 347.728,73.931 95.15-.046 184.752-14.622 263.121-40.271a9.989,9.989,0,01,12.432,13.238C839.32,484.649 718.719,570.54 578.187,570.608c-153.821,.074-283.863-102.7-325.035-243.293" fill="#1d1d1d"/></svg>
